<svg width="1185" height="94" viewBox="0 0 1185 94" fill="none" xmlns="http://www.w3.org/2000/svg">
<g filter="url(#filter0_d_43_2)">
<path d="M17 53.5C17 31.1325 35.1325 13 57.5 13H1127.5C1149.87 13 1168 31.1325 1168 53.5C1168 75.8675 1149.87 94 1127.5 94H57.5C35.1324 94 17 75.8675 17 53.5Z" fill="white"/>
</g>
<path d="M129.249 64H132.669V55.72H137.529C141.453 55.72 144.729 52.444 144.729 48.52C144.729 44.596 141.453 41.32 137.529 41.32H129.249V64ZM132.669 52.48V44.56H137.529C139.545 44.56 141.309 46.396 141.309 48.52C141.309 50.716 139.545 52.48 137.529 52.48H132.669ZM157.887 59.32C157.347 60.04 156.267 61.12 154.287 61.12C151.947 61.12 150.147 59.356 149.967 57.34H161.487L161.559 56.908C161.595 56.656 161.667 56.296 161.667 55.9C161.667 51.04 158.283 47.62 154.107 47.62C149.931 47.62 146.547 51.04 146.547 55.9C146.547 60.76 149.967 64.18 154.287 64.18C158.067 64.18 160.263 62.02 161.307 59.32H157.887ZM149.967 54.64C150.363 52.3 151.947 50.68 154.107 50.68C156.663 50.68 158.211 52.3 158.607 54.64H149.967ZM165.096 64H168.336V54.64C168.336 52.516 170.1 50.68 172.296 50.68C174.312 50.68 176.076 52.516 176.076 54.64V64H179.316V54.64C179.316 50.5 176.436 47.62 172.836 47.62C171.216 47.62 170.028 48.088 169.272 48.52C168.84 48.772 168.48 49.096 168.156 49.42L167.436 47.8H165.096V64ZM194.067 58.06C193.527 59.896 192.303 61.12 190.287 61.12C187.947 61.12 185.787 58.96 185.787 55.9C185.787 52.84 187.947 50.68 190.287 50.68C192.303 50.68 193.527 51.904 194.067 53.74H197.487C196.731 50.284 194.103 47.62 190.287 47.62C185.967 47.62 182.547 51.04 182.547 55.9C182.547 60.76 185.967 64.18 190.287 64.18C194.103 64.18 196.731 61.516 197.487 58.06H194.067ZM211.004 64H213.344V53.38C213.344 50.14 210.824 47.62 207.044 47.62C203.048 47.62 200.744 49.78 200.564 52.66H203.804C203.984 51.544 204.884 50.68 207.044 50.68C209.06 50.68 210.104 51.76 210.104 53.38V53.92C202.184 53.92 200.024 56.08 200.024 59.32C200.024 62.2 202.004 64.18 205.604 64.18C207.224 64.18 208.412 63.748 209.168 63.28C209.6 63.028 209.96 62.704 210.284 62.38L211.004 64ZM210.104 57.664C210.104 59.68 208.52 61.3 205.784 61.3C204.164 61.3 203.264 60.4 203.264 59.5C203.264 57.88 204.344 56.8 210.104 56.8V57.664ZM217.478 64H220.718V54.82C220.718 52.696 222.482 50.86 224.678 50.86C224.93 50.86 225.182 50.932 225.434 50.968L225.758 51.04V47.8L225.47 47.728C225.29 47.692 225.074 47.62 224.678 47.62C223.274 47.62 222.266 48.088 221.582 48.52C221.186 48.772 220.826 49.096 220.538 49.42L219.818 47.8H217.478V64ZM228.623 64H231.863V47.8H228.623V64ZM230.243 41.32C229.127 41.32 228.263 42.184 228.263 43.3C228.263 44.416 229.127 45.28 230.243 45.28C231.359 45.28 232.223 44.416 232.223 43.3C232.223 42.184 231.359 41.32 230.243 41.32ZM246.441 64H248.781V53.38C248.781 50.14 246.261 47.62 242.481 47.62C238.485 47.62 236.181 49.78 236.001 52.66H239.241C239.421 51.544 240.321 50.68 242.481 50.68C244.497 50.68 245.541 51.76 245.541 53.38V53.92C237.621 53.92 235.461 56.08 235.461 59.32C235.461 62.2 237.441 64.18 241.041 64.18C242.661 64.18 243.849 63.748 244.605 63.28C245.037 63.028 245.397 62.704 245.721 62.38L246.441 64ZM245.541 57.664C245.541 59.68 243.957 61.3 241.221 61.3C239.601 61.3 238.701 60.4 238.701 59.5C238.701 57.88 239.781 56.8 245.541 56.8V57.664ZM252.916 64H256.156V54.64C256.156 52.516 257.92 50.68 260.116 50.68C262.132 50.68 263.896 52.516 263.896 54.64V64H267.136V54.64C267.136 50.5 264.256 47.62 260.656 47.62C259.036 47.62 257.848 48.088 257.092 48.52C256.66 48.772 256.3 49.096 255.976 49.42L255.256 47.8H252.916V64ZM279.358 64H282.598V56.26L288.898 64H292.858L285.658 55.36L291.958 47.8H288.178L282.598 54.82V41.32H279.358V64ZM304.555 64H306.895V53.38C306.895 50.14 304.375 47.62 300.595 47.62C296.599 47.62 294.295 49.78 294.115 52.66H297.355C297.535 51.544 298.435 50.68 300.595 50.68C302.611 50.68 303.655 51.76 303.655 53.38V53.92C295.735 53.92 293.575 56.08 293.575 59.32C293.575 62.2 295.555 64.18 299.155 64.18C300.775 64.18 301.963 63.748 302.719 63.28C303.151 63.028 303.511 62.704 303.835 62.38L304.555 64ZM303.655 57.664C303.655 59.68 302.071 61.3 299.335 61.3C297.715 61.3 296.815 60.4 296.815 59.5C296.815 57.88 297.895 56.8 303.655 56.8V57.664ZM314.278 64H316.978L320.398 53.38L323.818 64H326.518L331.918 47.8H328.678L325.078 58.96L321.478 47.8H319.318L315.718 58.96L312.118 47.8H308.878L314.278 64ZM344.703 64H347.043V53.38C347.043 50.14 344.523 47.62 340.743 47.62C336.747 47.62 334.443 49.78 334.263 52.66H337.503C337.683 51.544 338.583 50.68 340.743 50.68C342.759 50.68 343.803 51.76 343.803 53.38V53.92C335.883 53.92 333.723 56.08 333.723 59.32C333.723 62.2 335.703 64.18 339.303 64.18C340.923 64.18 342.111 63.748 342.867 63.28C343.299 63.028 343.659 62.704 343.983 62.38L344.703 64ZM343.803 57.664C343.803 59.68 342.219 61.3 339.483 61.3C337.863 61.3 336.963 60.4 336.963 59.5C336.963 57.88 338.043 56.8 343.803 56.8V57.664ZM350.278 58.78C350.458 62.236 352.402 64.18 356.398 64.18C360.178 64.18 362.338 62.02 362.338 59.14C362.338 53.416 353.698 55.36 353.698 52.48C353.698 51.58 354.598 50.68 356.218 50.68C357.838 50.68 358.738 51.544 358.918 52.66H362.158C361.978 49.6 359.998 47.62 356.218 47.62C352.798 47.62 350.638 49.78 350.638 52.48C350.638 58.204 359.278 56.26 359.278 59.14C359.278 60.256 358.414 61.12 356.398 61.12C354.562 61.12 353.698 60.22 353.518 58.78H350.278ZM376.027 64H378.367V53.38C378.367 50.14 375.847 47.62 372.067 47.62C368.071 47.62 365.767 49.78 365.587 52.66H368.827C369.007 51.544 369.907 50.68 372.067 50.68C374.083 50.68 375.127 51.76 375.127 53.38V53.92C367.207 53.92 365.047 56.08 365.047 59.32C365.047 62.2 367.027 64.18 370.627 64.18C372.247 64.18 373.435 63.748 374.191 63.28C374.623 63.028 374.983 62.704 375.307 62.38L376.027 64ZM375.127 57.664C375.127 59.68 373.543 61.3 370.807 61.3C369.187 61.3 368.287 60.4 368.287 59.5C368.287 57.88 369.367 56.8 375.127 56.8V57.664ZM382.502 64H385.742V54.64C385.742 52.516 387.506 50.68 389.702 50.68C391.718 50.68 393.482 52.516 393.482 54.64V64H396.722V54.64C396.722 50.5 393.842 47.62 390.242 47.62C388.622 47.62 387.434 48.088 386.678 48.52C386.246 48.772 385.886 49.096 385.562 49.42L384.842 47.8H382.502V64ZM408.944 64H412.184V54.64C412.184 52.516 413.948 50.68 416.144 50.68C418.16 50.68 419.924 52.516 419.924 54.64V64H423.164V54.64C423.164 50.5 420.284 47.62 416.684 47.62C415.244 47.62 414.092 48.088 413.336 48.52C412.904 48.772 412.508 49.096 412.184 49.42V41.32H408.944V64ZM427.291 57.16C427.291 61.3 430.171 64.18 433.771 64.18C435.391 64.18 436.579 63.748 437.335 63.28C437.767 63.028 438.127 62.704 438.451 62.38L439.171 64H441.511V47.8H438.271V57.16C438.271 59.356 436.435 61.12 434.311 61.12C432.295 61.12 430.531 59.356 430.531 57.16V47.8H427.291V57.16ZM447.258 58.6C447.258 62.02 449.418 64.18 452.298 64.18C452.802 64.18 453.234 64.108 453.594 64C453.774 63.964 453.954 63.892 454.098 63.82V60.94L453.774 61.048C453.522 61.084 453.27 61.12 453.018 61.12C451.578 61.12 450.498 60.04 450.498 58.6V50.86H454.098V47.8H450.498V43.48H447.798V45.64C447.798 46.9 446.898 47.8 445.638 47.8H444.378V50.86H447.258V58.6ZM467.785 64H470.125V53.38C470.125 50.14 467.605 47.62 463.825 47.62C459.829 47.62 457.525 49.78 457.345 52.66H460.585C460.765 51.544 461.665 50.68 463.825 50.68C465.841 50.68 466.885 51.76 466.885 53.38V53.92C458.965 53.92 456.805 56.08 456.805 59.32C456.805 62.2 458.785 64.18 462.385 64.18C464.005 64.18 465.193 63.748 465.949 63.28C466.381 63.028 466.741 62.704 467.065 62.38L467.785 64ZM466.885 57.664C466.885 59.68 465.301 61.3 462.565 61.3C460.945 61.3 460.045 60.4 460.045 59.5C460.045 57.88 461.125 56.8 466.885 56.8V57.664ZM474.26 64H477.5V54.64C477.5 52.516 479.264 50.68 481.46 50.68C483.476 50.68 485.24 52.516 485.24 54.64V64H488.48V54.64C488.48 50.5 485.6 47.62 482 47.62C480.38 47.62 479.192 48.088 478.436 48.52C478.004 48.772 477.644 49.096 477.32 49.42L476.6 47.8H474.26V64Z" fill="#A4A2A2"/>
<path d="M90.4646 58.637H88.9818L88.4562 58.1306C89.6292 56.7686 90.4865 55.1644 90.9668 53.4327C91.447 51.701 91.5383 49.8846 91.2341 48.1135C90.352 42.8987 85.9974 38.7343 80.742 38.0965C78.8943 37.8629 77.0177 38.0548 75.2557 38.6575C73.4937 39.2603 71.893 40.2579 70.5761 41.574C69.2592 42.8901 68.261 44.4899 67.6579 46.2509C67.0548 48.0118 66.8628 49.8874 67.0965 51.7339C67.7347 56.9863 71.9015 61.3383 77.1195 62.2199C78.8916 62.5239 80.709 62.4327 82.4418 61.9527C84.1745 61.4728 85.7796 60.616 87.1424 59.4437L87.6491 59.9689V61.4508L95.6262 69.4232C96.3957 70.1923 97.6533 70.1923 98.4228 69.4232C99.1924 68.6541 99.1924 67.3973 98.4228 66.6282L90.4646 58.637ZM79.2029 58.637C74.5293 58.637 70.7566 54.8666 70.7566 50.1957C70.7566 45.5249 74.5293 41.7544 79.2029 41.7544C83.8765 41.7544 87.6491 45.5249 87.6491 50.1957C87.6491 54.8666 83.8765 58.637 79.2029 58.637Z" fill="#B5B5B5"/>
<defs>
<filter id="filter0_d_43_2" x="0" y="0" width="1185" height="115" filterUnits="userSpaceOnUse" color-interpolation-filters="sRGB">
<feFlood flood-opacity="0" result="BackgroundImageFix"/>
<feColorMatrix in="SourceAlpha" type="matrix" values="0 0 0 0 0 0 0 0 0 0 0 0 0 0 0 0 0 0 127 0" result="hardAlpha"/>
<feOffset dy="4"/>
<feGaussianBlur stdDeviation="8.5"/>
<feComposite in2="hardAlpha" operator="out"/>
<feColorMatrix type="matrix" values="0 0 0 0 0 0 0 0 0 0 0 0 0 0 0 0 0 0 0.25 0"/>
<feBlend mode="normal" in2="BackgroundImageFix" result="effect1_dropShadow_43_2"/>
<feBlend mode="normal" in="SourceGraphic" in2="effect1_dropShadow_43_2" result="shape"/>
</filter>
</defs>
</svg>
